# xmcd
#
# Track frame offsets: 
#        183
#        12393
#        21425
#        32073
#        42888
#        57230
#        67205
#        79333
#        90320
#        102368
#        112073
#        122950
#        135548
#        142773
#        152598
#        161643
#        172423
#        180695
#        189658
#        198533
#        208145
#        224100
#        234130
#        243368
#
# Disc length: 3338 seconds
#
# Revision: 0
# Processed by: cddbd v1.5.2PL0 Copyright (c) Steve Scherf et al.
# Submitted via: ExactAudioCopy v0.99pb3
#
DISCID=650d0818
DTITLE=Duane Eddy - Dance With The Guitar Man, Twistin 'N' Twangin' 
DYEAR=1900
DGENRE=Instrumental Rock
TTITLE0=Dance With The Giutar Man
TTITLE1=Limbo Rock
TTITLE2=Wild Watusi
TTITLE3=The Scrape
TTITLE4=New Hully Gully
TTITLE5=Popeye
TTITLE6=Spanish Twist
TTITLE7=The Climb
TTITLE8=Loco-Locomotion
TTITLE9=Nashville Stomp
TTITLE10=Creamy Mashed Potatoe
TTITLE11=Waltz Of The Wind
TTITLE12=The Peppermint Twist
TTITLE13=Twistin' N' Twangin'
TTITLE14=Let's Twist
TTITLE15=Miss Twist
TTITLE16=Sugartime Twist
TTITLE17=Exactly Like You
TTITLE18=Walkin' 'N' Twistin'
TTITLE19=Dear Lady
TTITLE20=Moanin' 'N' Twistin'
TTITLE21=Country Twist
TTITLE22=The Twist
TTITLE23=Twistig Off A Cliff
EXTD=
EXTT0=
EXTT1=
EXTT2=
EXTT3=
EXTT4=
EXTT5=
EXTT6=
EXTT7=
EXTT8=
EXTT9=
EXTT10=
EXTT11=
EXTT12=
EXTT13=
EXTT14=
EXTT15=
EXTT16=
EXTT17=
EXTT18=
EXTT19=
EXTT20=
EXTT21=
EXTT22=
EXTT23=
PLAYORDER=
